# xmcd
#
# Track frame offsets: 
#        150
#        13745
#        25958
#        41772
#        64165
#        89573
#        108974
#        123259
#        138616
#        155071
#        175159
#        191655
#
# Disc length: 2876 seconds
#
# Revision: 2
# Processed by: cddbd v1.5.2PL0 Copyright (c) Steve Scherf et al.
# Submitted via: ExactAudioCopy v0.95b4
#
DISCID=a80b3a0c
DTITLE=Various Artist - The Emo Diaries, Chapter 10 - The Hope I Hide Inside
DYEAR=2004
DGENRE=Emo
TTITLE0=Oliver - Straightest Jacket
TTITLE1=My Name Is Nobody - Brother Abel
TTITLE2=The Holiday Plan - Projecting power
TTITLE3=Sounds Like Violence - The Light Is Such a Beautiful Place
TTITLE4=A Month of Somedays - A Window's Pain
TTITLE5=Bailey Drive - How Would It Phase You?
TTITLE6=Lock and Key - Crow's Nest
TTITLE7=Hercules Hercules - Red Makes White
TTITLE8=Lukestar - Alpine Unit
TTITLE9=Latitude Blue - On the Corner
TTITLE10=Lost on Purpose - Friends
TTITLE11=The Silent Type - Jus Primae Noctis
EXTD=
EXTT0=
EXTT1=
EXTT2=
EXTT3=
EXTT4=
EXTT5=
EXTT6=
EXTT7=
EXTT8=
EXTT9=
EXTT10=
EXTT11=
PLAYORDER=
